<svg width="18" height="18" viewBox="0 0 18 18" fill="none" xmlns="http://www.w3.org/2000/svg">
<path d="M6.54071 2.34474L7.22897 3.57799C7.85009 4.69093 7.60075 6.15093 6.6225 7.12919C6.6225 7.12919 6.6225 7.12919 6.62249 7.12919C6.62235 7.12933 5.43603 8.31593 7.58732 10.4672C9.73781 12.6177 10.9244 11.433 10.9253 11.432C10.9254 11.432 10.9254 11.432 10.9254 11.432C11.9036 10.4538 13.3636 10.2045 14.4765 10.8256L15.7098 11.5138C17.3904 12.4517 17.5888 14.8085 16.1117 16.2857C15.224 17.1733 14.1367 17.864 12.9346 17.9096C10.9111 17.9863 7.47466 17.4742 4.02752 14.027C0.580375 10.5799 0.0682599 7.14342 0.144971 5.1199C0.19054 3.91787 0.881205 2.8305 1.76882 1.94288C3.246 0.465699 5.60282 0.664171 6.54071 2.34474Z" fill="white"/>
</svg>
