<svg width="16" height="18" viewBox="0 0 16 18" fill="none" xmlns="http://www.w3.org/2000/svg">
<path fill-rule="evenodd" clip-rule="evenodd" d="M12.6022 5.16333V6.44111C14.0375 6.88912 15.0833 8.18844 15.0833 9.74033V13.8544C15.0833 15.7756 13.4905 17.3333 11.5268 17.3333H4.47396C2.50942 17.3333 0.916626 15.7756 0.916626 13.8544V9.74033C0.916626 8.18844 1.96325 6.88912 3.3977 6.44111V5.16333C3.40617 2.67898 5.46385 0.666656 7.98726 0.666656C10.5445 0.666656 12.6022 2.67898 12.6022 5.16333ZM8.00419 2.11586C9.72316 2.11586 11.1204 3.48225 11.1204 5.16333V6.26141H4.87957V5.14677C4.88803 3.47397 6.28522 2.11586 8.00419 2.11586ZM8.74089 12.7124C8.74089 13.1182 8.41065 13.4412 7.99573 13.4412C7.58927 13.4412 7.25902 13.1182 7.25902 12.7124V10.874C7.25902 10.4765 7.58927 10.1536 7.99573 10.1536C8.41065 10.1536 8.74089 10.4765 8.74089 10.874V12.7124Z" fill="#9E9E9E"/>
</svg>
