<svg width="116" height="36" viewBox="0 0 116 36" fill="none" xmlns="http://www.w3.org/2000/svg">
<path d="M11.6994 13.96V16.7H7.97938V28H4.55938V16.7H0.839375V13.96H11.6994ZM16.8358 18.7C17.2358 18.0867 17.7358 17.6067 18.3358 17.26C18.9358 16.9 19.6024 16.72 20.3358 16.72V20.34H19.3958C18.5424 20.34 17.9024 20.5267 17.4758 20.9C17.0491 21.26 16.8358 21.9 16.8358 22.82V28H13.4158V16.84H16.8358V18.7ZM23.6905 15.68C23.0905 15.68 22.5971 15.5067 22.2105 15.16C21.8371 14.8 21.6505 14.36 21.6505 13.84C21.6505 13.3067 21.8371 12.8667 22.2105 12.52C22.5971 12.16 23.0905 11.98 23.6905 11.98C24.2771 11.98 24.7571 12.16 25.1305 12.52C25.5171 12.8667 25.7105 13.3067 25.7105 13.84C25.7105 14.36 25.5171 14.8 25.1305 15.16C24.7571 15.5067 24.2771 15.68 23.6905 15.68ZM25.3905 16.84V28H21.9705V16.84H25.3905ZM31.2889 18.42C31.6222 17.9 32.0822 17.48 32.6689 17.16C33.2556 16.84 33.9422 16.68 34.7289 16.68C35.6489 16.68 36.4822 16.9133 37.2289 17.38C37.9756 17.8467 38.5622 18.5133 38.9889 19.38C39.4289 20.2467 39.6489 21.2533 39.6489 22.4C39.6489 23.5467 39.4289 24.56 38.9889 25.44C38.5622 26.3067 37.9756 26.98 37.2289 27.46C36.4822 27.9267 35.6489 28.16 34.7289 28.16C33.9556 28.16 33.2689 28 32.6689 27.68C32.0822 27.36 31.6222 26.9467 31.2889 26.44V33.32H27.8689V16.84H31.2889V18.42ZM36.1689 22.4C36.1689 21.5467 35.9289 20.88 35.4489 20.4C34.9822 19.9067 34.4022 19.66 33.7089 19.66C33.0289 19.66 32.4489 19.9067 31.9689 20.4C31.5022 20.8933 31.2689 21.5667 31.2689 22.42C31.2689 23.2733 31.5022 23.9467 31.9689 24.44C32.4489 24.9333 33.0289 25.18 33.7089 25.18C34.3889 25.18 34.9689 24.9333 35.4489 24.44C35.9289 23.9333 36.1689 23.2533 36.1689 22.4ZM40.7631 22.42C40.7631 21.26 40.9965 20.2467 41.4631 19.38C41.9431 18.5133 42.6031 17.8467 43.4431 17.38C44.2965 16.9133 45.2698 16.68 46.3631 16.68C47.7631 16.68 48.9298 17.0467 49.8631 17.78C50.8098 18.5133 51.4298 19.5467 51.7231 20.88H48.0831C47.7765 20.0267 47.1831 19.6 46.3031 19.6C45.6765 19.6 45.1765 19.8467 44.8031 20.34C44.4298 20.82 44.2431 21.5133 44.2431 22.42C44.2431 23.3267 44.4298 24.0267 44.8031 24.52C45.1765 25 45.6765 25.24 46.3031 25.24C47.1831 25.24 47.7765 24.8133 48.0831 23.96H51.7231C51.4298 25.2667 50.8098 26.2933 49.8631 27.04C48.9165 27.7867 47.7498 28.16 46.3631 28.16C45.2698 28.16 44.2965 27.9267 43.4431 27.46C42.6031 26.9933 41.9431 26.3267 41.4631 25.46C40.9965 24.5933 40.7631 23.58 40.7631 22.42ZM60.4125 16.72C61.6925 16.72 62.7192 17.1467 63.4925 18C64.2658 18.84 64.6525 20 64.6525 21.48V28H61.2525V21.94C61.2525 21.1933 61.0592 20.6133 60.6725 20.2C60.2858 19.7867 59.7658 19.58 59.1125 19.58C58.4592 19.58 57.9392 19.7867 57.5525 20.2C57.1658 20.6133 56.9725 21.1933 56.9725 21.94V28H53.5525V13.2H56.9725V18.34C57.3192 17.8467 57.7925 17.4533 58.3925 17.16C58.9925 16.8667 59.6658 16.72 60.4125 16.72ZM66.3491 22.4C66.3491 21.2533 66.5624 20.2467 66.9891 19.38C67.4291 18.5133 68.0224 17.8467 68.7691 17.38C69.5157 16.9133 70.3491 16.68 71.2691 16.68C72.0557 16.68 72.7424 16.84 73.3291 17.16C73.9291 17.48 74.3891 17.9 74.7091 18.42V16.84H78.1291V28H74.7091V26.42C74.3757 26.94 73.9091 27.36 73.3091 27.68C72.7224 28 72.0357 28.16 71.2491 28.16C70.3424 28.16 69.5157 27.9267 68.7691 27.46C68.0224 26.98 67.4291 26.3067 66.9891 25.44C66.5624 24.56 66.3491 23.5467 66.3491 22.4ZM74.7091 22.42C74.7091 21.5667 74.4691 20.8933 73.9891 20.4C73.5224 19.9067 72.9491 19.66 72.2691 19.66C71.5891 19.66 71.0091 19.9067 70.5291 20.4C70.0624 20.88 69.8291 21.5467 69.8291 22.4C69.8291 23.2533 70.0624 23.9333 70.5291 24.44C71.0091 24.9333 71.5891 25.18 72.2691 25.18C72.9491 25.18 73.5224 24.9333 73.9891 24.44C74.4691 23.9467 74.7091 23.2733 74.7091 22.42ZM86.8233 25.1V28H85.0833C83.8433 28 82.8766 27.7 82.1833 27.1C81.4899 26.4867 81.1433 25.4933 81.1433 24.12V19.68H79.7833V16.84H81.1433V14.12H84.5633V16.84H86.8033V19.68H84.5633V24.16C84.5633 24.4933 84.6433 24.7333 84.8033 24.88C84.9633 25.0267 85.2299 25.1 85.6033 25.1H86.8233ZM93.2683 28.16C92.2949 28.16 91.4283 27.9933 90.6683 27.66C89.9083 27.3267 89.3083 26.8733 88.8683 26.3C88.4283 25.7133 88.1816 25.06 88.1283 24.34H91.5083C91.5483 24.7267 91.7283 25.04 92.0483 25.28C92.3683 25.52 92.7616 25.64 93.2283 25.64C93.6549 25.64 93.9816 25.56 94.2083 25.4C94.4483 25.2267 94.5683 25.0067 94.5683 24.74C94.5683 24.42 94.4016 24.1867 94.0683 24.04C93.7349 23.88 93.1949 23.7067 92.4483 23.52C91.6483 23.3333 90.9816 23.14 90.4483 22.94C89.9149 22.7267 89.4549 22.4 89.0683 21.96C88.6816 21.5067 88.4883 20.9 88.4883 20.14C88.4883 19.5 88.6616 18.92 89.0083 18.4C89.3683 17.8667 89.8883 17.4467 90.5683 17.14C91.2616 16.8333 92.0816 16.68 93.0283 16.68C94.4283 16.68 95.5283 17.0267 96.3283 17.72C97.1416 18.4133 97.6083 19.3333 97.7283 20.48H94.5683C94.5149 20.0933 94.3416 19.7867 94.0483 19.56C93.7683 19.3333 93.3949 19.22 92.9283 19.22C92.5283 19.22 92.2216 19.3 92.0083 19.46C91.7949 19.6067 91.6883 19.8133 91.6883 20.08C91.6883 20.4 91.8549 20.64 92.1883 20.8C92.5349 20.96 93.0683 21.12 93.7883 21.28C94.6149 21.4933 95.2883 21.7067 95.8083 21.92C96.3283 22.12 96.7816 22.4533 97.1683 22.92C97.5683 23.3733 97.7749 23.9867 97.7883 24.76C97.7883 25.4133 97.6016 26 97.2283 26.52C96.8683 27.0267 96.3416 27.4267 95.6483 27.72C94.9683 28.0133 94.1749 28.16 93.2683 28.16Z" fill="black"/>
<path d="M105 0C106.279 5.22112 110.412 9.26287 115.66 10.4248L116 10.5L115.66 10.5752C110.412 11.7371 106.279 15.7789 105 21C103.721 15.7789 99.5882 11.7371 94.3398 10.5752L94 10.5L94.3398 10.4248C99.5882 9.26287 103.721 5.22112 105 0Z" fill="black"/>
</svg>
