<svg width="23" height="18" viewBox="0 0 23 18" fill="none" xmlns="http://www.w3.org/2000/svg">
<path fill-rule="evenodd" clip-rule="evenodd" d="M2.07038 2.19139C0.827957 3.43381 0.827957 5.43346 0.827957 9.43274C0.827957 13.432 0.827957 15.4317 2.07038 16.6741C3.3128 17.9165 5.31244 17.9165 9.31173 17.9165H13.5536C17.5529 17.9165 19.5525 17.9165 20.795 16.6741C22.0374 15.4317 22.0374 13.432 22.0374 9.43274C22.0374 5.43346 22.0374 3.43381 20.795 2.19139C19.5525 0.948975 17.5529 0.948975 13.5536 0.948975H9.31173C5.31244 0.948975 3.3128 0.948975 2.07038 2.19139ZM18.4065 4.68169C18.6877 5.01914 18.6421 5.52066 18.3047 5.80187L15.9754 7.74295C15.0354 8.52628 14.2736 9.16118 13.6011 9.59364C12.9007 10.0441 12.2186 10.3287 11.4327 10.3287C10.6468 10.3287 9.96463 10.0441 9.26419 9.59364C8.59179 9.16118 7.82994 8.52629 6.88999 7.74297L4.56067 5.80187C4.22322 5.52066 4.17763 5.01914 4.45883 4.68169C4.74004 4.34424 5.24156 4.29864 5.57901 4.57985L7.86846 6.48772C8.85784 7.3122 9.54474 7.88278 10.1247 8.25576C10.686 8.61681 11.0667 8.738 11.4327 8.738C11.7986 8.738 12.1793 8.61681 12.7407 8.25576C13.3206 7.88278 14.0075 7.3122 14.9969 6.48772L17.2863 4.57985C17.6238 4.29864 18.1253 4.34424 18.4065 4.68169Z" fill="white"/>
</svg>
