<svg width="22" height="22" viewBox="0 0 22 22" fill="none" xmlns="http://www.w3.org/2000/svg">
<path fill-rule="evenodd" clip-rule="evenodd" d="M0.196823 10.1873C0.612309 4.58368 5.29038 0.166443 11.0001 0.166443C10.1 0.166443 9.29864 0.561002 8.63935 1.16433C7.98337 1.76463 7.42902 2.60262 6.98066 3.59319C6.52965 4.58961 6.17932 5.75501 5.9422 7.01973C5.75212 8.03355 5.63645 9.10234 5.5979 10.1873H0.196823ZM0.196823 11.8123H5.5979C5.63645 12.8972 5.75212 13.966 5.9422 14.9798C6.17932 16.2445 6.52965 17.4099 6.98066 18.4064C7.42902 19.3969 7.98337 20.2349 8.63935 20.8352C9.29864 21.4386 10.1 21.8331 11.0001 21.8331C5.29038 21.8331 0.612309 17.4159 0.196823 11.8123Z" fill="white"/>
<path d="M11.0002 1.67807C10.7022 1.67807 10.3173 1.80484 9.8698 2.21439C9.41895 2.62698 8.96761 3.2736 8.56884 4.1546C8.17272 5.02975 7.85107 6.08622 7.62972 7.26682C7.45541 8.19656 7.34727 9.18215 7.30932 10.1873H14.691C14.653 9.18215 14.5449 8.19657 14.3706 7.26682C14.1492 6.08622 13.8276 5.02975 13.4315 4.1546C13.0327 3.2736 12.5813 2.62698 12.1305 2.21439C11.683 1.80484 11.2981 1.67807 11.0002 1.67807Z" fill="white"/>
<path d="M7.62972 14.7327C7.85107 15.9133 8.17272 16.9698 8.56884 17.845C8.96761 18.726 9.41895 19.3726 9.8698 19.7852C10.3173 20.1947 10.7022 20.3215 11.0001 20.3215C11.2981 20.3215 11.683 20.1947 12.1305 19.7852C12.5813 19.3726 13.0327 18.726 13.4315 17.845C13.8276 16.9698 14.1492 15.9133 14.3706 14.7327C14.5449 13.803 14.653 12.8174 14.691 11.8123H7.30932C7.34727 12.8174 7.45541 13.803 7.62972 14.7327Z" fill="white"/>
<path d="M11.0001 0.166443C11.9002 0.166443 12.7017 0.561003 13.361 1.16433C14.0169 1.76464 14.5713 2.60262 15.0196 3.59319C15.4707 4.58961 15.821 5.75502 16.0581 7.01974C16.2482 8.03355 16.3638 9.10234 16.4024 10.1873H21.8035C21.388 4.58368 16.7099 0.166443 11.0001 0.166443Z" fill="white"/>
<path d="M16.0581 14.9798C15.821 16.2445 15.4707 17.4099 15.0196 18.4064C14.5713 19.3969 14.0169 20.2349 13.361 20.8352C12.7017 21.4386 11.9002 21.8331 11.0001 21.8331C16.7099 21.8331 21.388 17.4159 21.8035 11.8123H16.4024C16.3638 12.8972 16.2482 13.966 16.0581 14.9798Z" fill="white"/>
</svg>
